<?xml version="1.0" encoding="utf-8"?>
<!DOCTYPE svg PUBLIC "-//W3C//DTD SVG 1.0//EN" "http://www.w3.org/TR/2001/REC-SVG-20010904/DTD/svg10.dtd">
<svg version="1.0" xmlns="http://www.w3.org/2000/svg" width="449px" height="1043px" viewBox="0 0 449 1043" preserveAspectRatio="xMidYMid meet">
 <g fill="#45cbae">
  <path d="M361.5 1026.2 c-5.3 -1.8 -8.9 -6.7 -10.1 -13.9 -0.4 -2.1 -0.5 -11.6 -0.4 -21 0.1 -9.5 -0.2 -17.3 -0.7 -17.3 -0.4 0 -0.7 -4.1 -0.5 -9.1 0.2 -5 0 -9.8 -0.3 -10.7 -0.4 -1 -0.9 -3 -1 -4.7 -1.5 -14.8 -2.1 -19.1 -2.8 -20.2 -0.3 -0.4 -0.8 -3 -1.1 -5.7 -0.4 -2.8 -1.5 -7.5 -2.5 -10.5 -2.4 -7.6 -5.5 -17.5 -5.6 -18.1 -0.3 -2.2 -3 -10.7 -3.6 -11.5 -0.5 -0.5 -0.9 -1.7 -0.9 -2.6 0 -0.9 -0.9 -3.4 -1.9 -5.6 -5.1 -10.2 -10.1 -21.6 -10.1 -22.9 0 -0.8 -0.7 -1.4 -1.5 -1.4 -0.8 0 -1.5 -0.6 -1.5 -1.4 0 -0.8 -0.7 -1.7 -1.5 -2 -0.9 -0.3 -2.1 -1.9 -2.6 -3.6 -0.6 -1.6 -1.6 -3 -2.3 -3 -1.3 0 -13.6 -12.1 -13.6 -13.4 0 -0.4 -2.5 -3 -5.5 -5.8 -3 -2.7 -5.2 -5.4 -4.9 -6 0.8 -1.3 -15.6 -17.9 -16.9 -17.1 -1.1 0.7 -6.4 -4.4 -8.3 -7.9 -0.8 -1.6 -2.1 -2.8 -2.9 -2.8 -0.8 0 -7.1 -5.6 -13.9 -12.5 -6.9 -6.9 -13.2 -12.5 -14.1 -12.5 -0.8 0 -1.8 -0.7 -2.1 -1.5 -0.7 -1.6 -20.4 -21.4 -23.1 -23.1 -0.9 -0.6 -2.1 -1.9 -2.7 -3 -0.6 -1 -1.7 -2.3 -2.3 -2.7 -0.7 -0.4 -1.3 -1.4 -1.3 -2.1 0 -0.8 -0.7 -1.6 -1.5 -2 -0.8 -0.3 -1.5 -1.5 -1.5 -2.6 0 -1.1 -0.7 -2 -1.5 -2 -0.8 0 -1.5 -0.6 -1.5 -1.4 0 -0.8 -0.7 -1.6 -1.5 -2 -0.8 -0.3 -1.5 -1.2 -1.5 -2.1 0 -0.8 -0.4 -1.5 -1 -1.5 -0.5 0 -1 -0.7 -1 -1.5 0 -0.8 -0.4 -1.5 -0.9 -1.5 -2.4 0 -28.1 -45 -28.1 -49.2 0 -0.5 -0.7 -2.4 -1.5 -4.1 -1.7 -3.8 -8.1 -24 -8.8 -28.2 -0.3 -1.7 -0.8 -4.1 -1.2 -5.5 -0.3 -1.4 -0.7 -3.6 -1 -5 -1 -5.5 -1.4 -7.2 -2 -8.9 -0.3 -0.9 -0.7 -3.9 -1 -6.7 -0.2 -2.7 -0.6 -6 -0.9 -7.4 -1.4 -7.7 -1.9 -17.5 -2 -44.7 0 -16.7 0.2 -30.3 0.7 -30.3 0.4 0 0.7 -2.9 0.7 -6.5 0 -3.9 -0.4 -6.5 -1.1 -6.5 -0.5 0 -0.7 -0.5 -0.3 -1.2 0.4 -0.6 0.9 -3.6 1.1 -6.7 0.6 -7.9 0.9 -10.4 1.6 -12.1 0.3 -0.8 0.6 -2.8 0.5 -4.5 0 -1.6 0.3 -4.1 0.5 -5.5 0.3 -1.4 0.8 -4.1 1.2 -6 1.8 -10.5 9.1 -36.2 10.5 -37 0.4 -0.3 1.6 -3.2 2.5 -6.5 1.5 -5 4.9 -14.3 8.4 -23 3 -7.2 23.8 -47 27.7 -53.1 1.9 -2.8 3.4 -5.6 3.4 -6.3 0 -0.6 0.5 -1.1 1 -1.1 0.6 0 1 -0.5 1 -1.2 0 -1.3 25.9 -40.3 28.9 -43.5 1.2 -1.2 2.1 -2.5 2.1 -2.9 0 -0.4 1 -1.7 2.3 -2.9 1.2 -1.3 3.8 -4.4 5.7 -6.9 1.9 -2.5 4 -4.6 4.7 -4.6 0.6 0 4.8 -4.2 9.2 -9.4 9.8 -11.4 35.5 -36.4 46.6 -45.3 20.2 -16.2 45.8 -31.8 72.7 -44.2 16.7 -7.7 20.7 -8.9 25.1 -7.2 3.3 1.3 6 6.9 5.1 10.5 -1 4 -4.3 6.2 -17.9 11.7 -25.8 10.4 -41.5 18.5 -41.5 21.5 0 0.8 -0.4 1.4 -1 1.4 -0.5 0 -5.5 3 -11.2 6.6 -5.6 3.6 -10.9 6.9 -11.7 7.2 -0.9 0.3 -2.1 1.1 -2.8 1.6 -1.9 1.7 -3.5 2.9 -7.8 6.1 -13.8 10.3 -55.4 51.3 -62.5 61.5 -1.3 1.9 -3.9 5.1 -5.7 7 -1.8 1.9 -6.3 8 -9.9 13.5 -3.7 5.5 -8.8 13.3 -11.5 17.2 -2.7 4 -4.9 7.5 -4.9 7.7 0 0.2 -2.8 5 -6.3 10.7 -13 21.6 -30.7 60.6 -30.7 67.7 0 0.7 -0.8 3.1 -1.9 5.5 -3.4 7.7 -11.5 42.7 -12.5 54.2 -0.2 2.2 -0.5 4 -0.5 4 -0.1 0 -0.4 2.3 -0.6 5.1 -0.1 2.9 -0.8 6.1 -1.5 7.3 -0.7 1.4 -1 5.8 -0.7 12.2 0.2 6 0 10.2 -0.6 10.6 -1.2 0.7 0 36.5 1.2 37.3 0.4 0.3 0.9 1.2 0.9 2 0.1 0.8 0.4 2.9 0.6 4.5 0.3 1.7 0.7 6.2 1 10 0.3 3.9 0.8 8.1 1.1 9.5 2.2 11.5 4 19.6 5.7 26 1.1 4.1 2.1 8.5 2.4 9.8 0.4 2 1 3.9 4 11.7 0.4 1.1 0.8 2.5 0.9 3.1 0.7 3.2 13.5 30.4 15.7 33.3 1 1.3 1.8 3 1.8 3.7 0 0.8 0.5 1.4 1 1.4 0.6 0 1 0.5 1 1 0 0.6 0.9 2 2 3.2 1.1 1.2 2 2.8 2 3.5 0 0.7 0.5 1.3 1 1.3 0.6 0 1 0.7 1 1.5 0 0.8 0.4 1.5 1 1.5 0.5 0 2.2 1.9 3.7 4.3 1.5 2.3 3.3 4.6 4 5 0.7 0.4 1.3 1.2 1.3 1.7 0 0.5 1.4 2.4 3.1 4.2 1.7 1.8 4 5.1 5.1 7.2 2.6 5 21.6 24.6 23.8 24.6 0.9 0 3.1 1.5 4.8 3.3 1.7 1.7 4.5 4.2 6.2 5.5 1.6 1.3 3 3 3 3.8 0 0.8 0.7 1.4 1.6 1.4 0.9 0 3.7 2 6.3 4.4 8.9 8.5 19.6 18.4 23.9 22.1 2.3 2.1 4.2 4.2 4.2 4.7 0 1.1 10.7 13.1 12.2 13.7 1.7 0.6 5.8 4.8 5.8 5.9 0 0.6 6.1 7.3 13.5 14.9 7.4 7.5 13.5 14.2 13.5 14.7 0 0.5 0.8 1.9 1.9 3 3 3.3 8.1 13.5 8.1 16.1 0 1.3 0.4 2.7 1 3 1.3 0.8 4.6 8.2 7.2 16.5 0.8 2.5 2 6.2 2.7 8.2 1.5 4.7 2.2 7.5 2.8 11.6 0.3 1.7 0.9 3.2 1.5 3.2 0.5 0 0.7 0.4 0.4 0.8 -0.3 0.4 0 2.6 0.5 4.8 0.6 2.1 1.5 5.9 2.1 8.4 0.6 2.5 1.4 5 1.8 5.5 2.5 3.2 4.4 27.6 4.1 51 -0.7 44.3 -1.2 51.6 -4 55.5 -1.9 2.6 -4.2 3.3 -7.6 2.2z"/>
  <path d="M390 988.7 c-6.7 -2.7 -9 -6.1 -7.2 -10.2 l1.3 -2.8 9.9 0.5 c10.9 0.5 14.5 2 15.6 6.4 0.5 1.8 0 3.4 -1.3 5.2 -2.8 3.7 -10.5 4.1 -18.3 0.9z"/>
  <path d="M409 948.3 c-4 -0.7 -9.3 -2.5 -10.7 -3.7 -5.7 -4.6 -6.7 -8.3 -3.5 -12.2 1.9 -2.3 3.6 -3 9.2 -3.8 1.9 -0.3 4.5 -0.8 5.7 -1 1.3 -0.3 2.5 -0.1 2.8 0.5 0.4 0.5 2.2 0.9 4.1 0.9 5.5 0 9.2 2.4 10.4 6.9 1.5 5.5 0.4 7.8 -5.2 11.4 -2.6 1.6 -7.1 2 -12.8 1z"/>
  <path d="M399.5 909.6 c-0.5 -0.3 -2.7 -0.7 -4.9 -1.1 -7.1 -1.2 -11 -8 -6.8 -11.8 2.7 -2.4 25.1 -4.6 28.5 -2.8 3.6 1.9 5.3 5.6 4.1 8.8 -1.6 4.4 -5.5 6.5 -13.1 6.9 -3.7 0.2 -7.2 0.2 -7.8 0z"/>
  <path d="M381.1 866.9 c-7.1 -1.4 -9.7 -5 -7.1 -9.9 1.4 -2.5 9.2 -4.7 20 -5.6 4.7 -0.4 8.7 -1.1 9 -1.5 0.9 -1.3 8.2 1 10.8 3.4 4.3 4 2 11.3 -4.5 13.8 -3 1.1 -22.1 1 -28.2 -0.2z"/>
  <path d="M188.8 826.5 c-2.8 -2.8 -4.5 -7.5 -2.8 -7.5 0.4 0 1.2 -1.7 1.8 -3.7 0.6 -2.1 2.5 -5.3 4.2 -7.1 1.6 -1.8 3 -3.7 3 -4.3 0 -0.5 0.5 -0.9 1 -0.9 0.6 0 1 -0.7 1 -1.5 0 -0.9 0.6 -1.8 1.4 -2.1 0.8 -0.3 1.7 -1.5 2 -2.8 0.3 -1.2 2.3 -4.1 4.4 -6.4 3.4 -3.6 4.5 -4.2 8 -4.2 2.3 0 4.6 0.6 5.4 1.5 3.2 3.6 3.8 4.5 3.8 6.4 0 3 -3.4 10.3 -6.2 13.1 -1.3 1.4 -3.9 4.5 -5.8 7 -1.9 2.5 -4.3 5.4 -5.2 6.4 -1 1.1 -1.8 2.3 -1.8 2.7 0 1.9 -4.8 5.7 -7.8 6.1 -2.8 0.4 -3.9 -0.1 -6.4 -2.7z"/>
  <path d="M355 814.8 c-1.9 -0.4 -5.9 -1 -8.9 -1.3 -6.3 -0.5 -9.8 -2.5 -10.7 -6.1 -0.9 -3.5 1.8 -8.9 5.4 -10.8 3.5 -1.8 11.6 -3.3 16.2 -3 17.6 1.3 23.9 1.1 30.8 -0.5 11.9 -3 19.2 -0.3 19.2 7.1 0 7.6 -12.6 12.9 -32.5 13.6 -7.1 0.2 -13.7 0.8 -14.5 1.2 -0.8 0.4 -3.1 0.3 -5 -0.2z"/>
  <path d="M105.6 761.6 c-1.6 -1.8 -2.6 -4.2 -2.6 -6.1 0 -3.7 4.2 -10.1 7.2 -11.1 1.2 -0.3 3 -1.4 4 -2.4 1 -0.9 3.6 -2.6 5.8 -3.6 2.2 -1 4 -2.2 4 -2.6 0 -0.5 0.7 -0.8 1.5 -0.8 0.8 0 1.5 -0.4 1.5 -1 0 -0.5 0.7 -1 1.5 -1 0.8 0 1.5 -0.4 1.5 -1 0 -0.5 0.7 -1 1.5 -1 0.8 0 1.5 -0.4 1.5 -1 0 -0.5 0.5 -1 1 -1 0.6 0 1.9 -0.9 3 -2 1.1 -1.1 2.7 -2 3.5 -2 0.8 0 1.5 -0.4 1.5 -1 0 -0.5 0.5 -1 1 -1 0.6 0 2.3 -1.1 3.7 -2.4 2.2 -2 3.5 -2.4 8.2 -2.3 5.3 0.2 5.6 0.3 7.5 3.9 1.7 3.4 1.8 4.1 0.5 6.5 -0.8 1.4 -2.1 2.8 -2.9 3 -0.9 0.2 -2 1.4 -2.5 2.5 -0.6 1.2 -1.9 2.6 -3 3.2 -1.1 0.6 -2.4 1.7 -2.8 2.4 -0.4 0.6 -1.5 1.2 -2.2 1.2 -0.8 0 -1.5 0.5 -1.5 1 0 0.6 -0.6 1 -1.3 1 -0.7 0 -2 0.9 -3 2 -0.9 1.1 -2.4 2 -3.2 2 -0.8 0 -1.5 0.5 -1.5 1 0 0.6 -0.7 1 -1.5 1 -0.8 0 -1.5 0.5 -1.5 1 0 0.6 -0.7 1 -1.5 1 -0.8 0 -1.5 0.5 -1.5 1 0 0.6 -0.7 1 -1.5 1 -0.8 0 -1.5 0.5 -1.5 1 0 0.6 -0.7 1 -1.5 1 -0.8 0 -1.5 0.4 -1.5 0.8 0 1.4 -12.9 8.4 -15.9 8.6 -2.1 0.1 -3.6 -0.6 -5.5 -2.8z"/>
  <path d="M411.7 762 c-1.4 -1.1 -2.9 -3.1 -3.3 -4.3 -0.4 -1.2 -1 -2.4 -1.3 -2.7 -0.4 -0.3 -1.7 -6.3 -2.8 -13.5 -1.1 -7.1 -2.3 -14.1 -2.7 -15.5 -0.3 -1.4 -0.8 -3.8 -1.2 -5.5 -0.3 -1.6 -0.9 -4.3 -1.4 -6 -2.5 -9.2 -4.4 -15.4 -5.6 -19 -0.8 -2.3 -1.4 -5.1 -1.4 -6.3 0 -1.2 -0.4 -2.2 -1 -2.2 -0.5 0 -0.7 -0.7 -0.4 -1.5 0.4 -0.8 0 -2.5 -0.8 -3.8 -1.3 -2 -7.5 -16.5 -11.8 -27.7 -4.3 -11.3 -28.8 -61 -35.9 -73.2 -2.8 -4.7 -5.1 -8.8 -5.1 -9.1 0 -0.3 -1.3 -2.1 -3 -3.9 -1.6 -1.8 -3 -3.8 -3 -4.5 0 -0.7 -0.4 -1.3 -0.9 -1.3 -0.5 0 -2.7 -2.4 -5.1 -5.4 -2.3 -3 -5.7 -7.2 -7.7 -9.2 -3.7 -3.9 -5.3 -7.2 -5.3 -10.6 0 -2.2 7.9 -10.6 12 -12.8 2.9 -1.6 17.1 -1.6 22.4 -0.2 1.8 0.6 4.5 0.7 6 0.5 1.5 -0.3 2.6 -0.1 2.6 0.6 0 0.7 2.8 1.1 8 1.1 5.2 0 8 -0.4 8 -1.1 0 -0.7 1 -0.9 2.6 -0.5 1.4 0.4 3.2 0.2 3.8 -0.3 0.7 -0.6 3.2 -1.3 5.5 -1.6 2.3 -0.3 4.5 -0.6 4.9 -0.6 5.7 -0.9 10.5 3.2 10.8 9.1 0.1 2.7 -0.4 4.8 -1.4 6 -1 1 -2.2 2.5 -2.9 3.3 -0.7 0.9 -3.8 2.1 -7 2.7 -3.2 0.7 -6.8 1.6 -8.1 2.1 -1.2 0.5 -4.4 0.7 -7 0.4 -13.5 -1.2 -27.8 -1.5 -29.2 -0.5 -1.3 0.9 -1.3 1.2 0 2.3 0.8 0.6 3.3 4.1 5.4 7.7 2.2 3.6 5.4 8.3 7.2 10.5 3.8 4.7 11.1 18.6 17.9 34 2.6 6.1 6.3 14.2 8 18 3.5 7.5 4.6 10 9.5 21.5 1.8 4.1 4 9.3 5 11.5 5 11.2 16.4 41 19.4 50.3 4.5 14.1 10.2 35.5 11.1 41.4 0.2 1.2 0.9 4.3 1.5 6.7 1.2 4.8 0.1 10.1 -2.8 13.4 -2.2 2.5 -10.1 2.3 -13.5 -0.3z"/>
  <path d="M9.2 667.4 c-3.9 -2.7 -4.6 -6 -2.1 -11.1 2.2 -4.6 6.2 -7.8 16.1 -13.1 3.2 -1.6 7.8 -4.4 10.3 -6.1 2.5 -1.7 4.8 -3.1 5 -3.1 0.3 0 3.5 -1.8 7.1 -4.1 15.7 -9.6 49.4 -25.2 49.4 -22.8 0 0.5 1.5 0.9 3.3 0.9 4.9 0.1 8.7 4 8.7 8.9 0 3.1 -6 9.1 -10 10.1 -6.2 1.5 -27.8 11.3 -38.9 17.6 -11.9 6.8 -24.8 14.4 -32.1 19 -9.1 5.7 -12.9 6.6 -16.8 3.8z"/>
  <path d="M77.9 518.6 c-0.3 -0.4 -4.3 -0.8 -8.9 -1 -5.1 -0.3 -8.6 -0.9 -9 -1.7 -0.6 -0.9 -3.2 -1 -9.9 -0.6 -6.5 0.5 -9.1 0.4 -9.1 -0.4 0 -0.9 -3 -1 -10.5 -0.5 -10.3 0.7 -10.5 0.7 -13 -1.8 -1.5 -1.5 -2.5 -3.6 -2.5 -5.3 0.1 -3.5 4.2 -8.3 7.8 -8.9 5 -1 18.4 -0.9 18.9 0 0.5 0.8 24.3 0.2 39.8 -0.9 8.1 -0.6 15.5 4.6 15.5 11 0 2.5 -0.8 4 -3.5 6.4 -2 1.7 -4.6 3.1 -5.8 3.1 -1.2 0 -3.8 0.3 -5.7 0.6 -1.9 0.3 -3.8 0.3 -4.1 0z"/>
  <path d="M109.5 391.3 c-3.2 -0.8 -11.7 -3.8 -33 -11.4 -11 -3.9 -24.5 -8.6 -29.9 -10.5 -10.2 -3.5 -16.6 -7 -16.6 -9.1 0 -0.6 -0.5 -1.3 -1.1 -1.5 -0.8 -0.3 -1 -1.6 -0.5 -4 0.7 -3.8 6.5 -8.9 9.5 -8.3 0.9 0.2 7.2 2.3 14.1 4.8 6.9 2.5 19.3 6.6 27.5 9.2 23.2 7.2 32.9 10.6 34.6 12.1 0.8 0.8 1.9 1.4 2.4 1.4 0.4 0 2.1 1.4 3.7 3.2 5.3 6 2.9 13.6 -4.7 14.3 -2.2 0.2 -4.9 0.1 -6 -0.2z"/>
  <path d="M165.5 294.4 c-11.1 -3.9 -39.2 -17.5 -45 -21.9 -1.6 -1.2 -4.3 -2.9 -6 -3.8 -1.6 -0.8 -4 -2.3 -5.2 -3.4 -1.2 -1 -3.9 -2.9 -5.8 -4.3 -6.6 -4.6 -7.4 -5.5 -7.9 -8.3 -0.4 -2 0.1 -3.1 1.7 -4.2 4 -2.6 13.6 0.9 28.6 10.3 8.3 5.3 36.6 18.6 46.1 21.7 12.7 4.2 17.5 10.4 11.5 14.8 -3.2 2.3 -9.8 2 -18 -0.9z"/>
  <path d="M229.8 227.9 c-1 -0.5 -3.1 -3 -4.8 -5.4 -1.7 -2.5 -3.8 -4.5 -4.6 -4.5 -0.8 0 -1.9 -1.1 -2.4 -2.5 -0.5 -1.4 -1.4 -2.5 -2 -2.5 -0.5 0 -1 -0.6 -1 -1.4 0 -0.8 -0.7 -1.6 -1.5 -2 -0.8 -0.3 -1.5 -1.2 -1.5 -2 0 -0.9 -0.9 -2 -2 -2.6 -1.1 -0.6 -2 -1.7 -2 -2.5 0 -0.8 -0.9 -1.9 -2 -2.5 -1.1 -0.6 -2 -1.9 -2 -2.9 0 -1 -0.9 -2.1 -2 -2.4 -1.1 -0.3 -2.5 -1.9 -3.1 -3.6 -0.6 -1.7 -1.6 -3.1 -2.3 -3.1 -1.5 0 -6.6 -5.2 -6.6 -6.7 0 -0.6 -1.6 -2.3 -3.5 -3.7 -4.2 -3.2 -6.2 -6.1 -6.9 -9.7 -0.3 -2.1 0.2 -3.1 2.4 -4.8 6.1 -4.5 7.1 -3.9 24.2 14.9 32.9 36.2 38.9 44.8 34.2 49.4 -1.7 1.8 -8 2.1 -10.6 0.5z"/>
  <path d="M308.8 181.3 c-3.2 -3.6 -6.9 -12.5 -14.2 -34.3 -4.2 -12.3 -10.1 -28 -13.2 -34.9 -7.8 -17.6 -8.6 -19.9 -7.3 -22.2 1.7 -3.3 6 -2.1 8.1 2.1 8.5 16.9 25.6 57 33.3 77.7 3.1 8.5 3.6 10.5 2.5 11.8 -1.7 2 -7.3 1.9 -9.2 -0.2z"/>
  <path d="M358.8 122.2 c-3.1 -3.4 -4 -5.7 -6.5 -15.7 -0.8 -3.3 -1.3 -5.8 -1.8 -9.5 -0.3 -1.9 -0.8 -4.4 -1.2 -5.5 -0.3 -1.1 -0.8 -3.3 -0.9 -5 -0.5 -4.1 -1 -7.5 -1.7 -10.5 -0.6 -2.5 -1.1 -5.4 -2.2 -14.5 -0.4 -2.7 -1.5 -10.2 -2.6 -16.5 -2 -11.5 -3.3 -29 -2.3 -32.2 0.6 -2.1 3.7 -2.4 5.3 -0.4 0.6 0.7 3.7 14.4 6.8 30.2 3.1 15.9 6.1 29.4 6.8 29.9 1.1 0.9 2.8 6.9 4.1 14 0.5 3 1.2 5.3 5.8 20.6 3 9.8 3.2 13.6 1 16.7 -2.4 3.5 -6.5 2.9 -10.6 -1.6z"/>
 </g>
 <g fill="#40bda2">
  <path d="M9.2 667.4 c-3.9 -2.7 -4.6 -6 -2.1 -11.1 2.2 -4.6 6.2 -7.8 16.1 -13.1 3.2 -1.6 7.8 -4.4 10.3 -6.1 2.5 -1.7 4.8 -3.1 5 -3.1 0.3 0 3.5 -1.8 7.1 -4.1 15.5 -9.4 49.4 -25.2 49.4 -22.9 0 0.5 1.7 1.1 3.8 1.3 3 0.3 2.7 0.4 -1.6 0.5 -3.5 0.1 -8.2 1.4 -13.9 3.8 -9.2 3.8 -36.3 17.9 -45.1 23.5 -2.9 1.9 -9.1 5.7 -13.9 8.4 -10.7 6.2 -17.3 11.9 -17.3 14.9 0 2.5 3.8 6.6 6 6.6 0.8 0 5.3 -2.4 10 -5.3 25.5 -16.1 48 -27.9 64.8 -34.3 11.8 -4.5 16.2 -7.3 16.2 -10.6 0 -1 0.7 -1.8 1.5 -1.8 1 0 1.5 1 1.5 2.6 0 3.5 -6.8 10.4 -10.3 10.4 -1.4 0 -3.2 0.6 -3.9 1.4 -0.8 0.7 -3.2 1.9 -5.3 2.6 -2.2 0.7 -4.7 1.6 -5.5 2.1 -0.8 0.5 -2.2 1.2 -3 1.5 -4.3 1.8 -10.8 4.9 -12.9 6.3 -1.4 0.9 -2.9 1.6 -3.5 1.6 -0.6 0 -3.7 1.7 -6.8 3.8 -3.1 2 -6 3.7 -6.4 3.7 -0.3 0 -7.5 4.3 -15.9 9.5 -16.2 10.1 -19.7 11.2 -24.3 7.9z"/>
 </g>
 <g fill="#ffffff">
  <path d="M360.7 1027.9 c-3.6 -1 -5.5 -2.5 -7.4 -6.3 -3.5 -6.6 -4.4 -14.4 -5.8 -49.1 -1.8 -43 -2.8 -48.8 -15 -85 -9.6 -28.4 -12.2 -32.7 -35.4 -57.5 -22 -23.4 -31.6 -32.7 -61.7 -59.5 -26.1 -23.2 -40.9 -40.7 -60.7 -71.6 -13 -20.4 -24.7 -51.4 -30.6 -80.9 -8.4 -41.9 -7.8 -108.6 1.3 -149.1 3.3 -14.6 13 -46.2 15.6 -50.9 1.1 -1.9 2.8 -5.3 3.7 -7.5 3.3 -8 25.2 -50.2 30.7 -59 23.7 -38.4 44.9 -66.8 66.5 -88.9 36.1 -37 59.5 -54.4 99.6 -74.1 23.2 -11.3 30.2 -14 34.6 -13.1 10.4 2.1 14.1 14.2 6.6 21.6 -1.7 1.6 -5.6 3.9 -8.6 5.1 -20.3 7.5 -46.2 19.8 -56.3 26.7 -2.4 1.6 -8.2 5.2 -13 8 -11 6.5 -19.9 13.7 -39.6 32.1 -41.9 39.3 -64.3 70.2 -95.6 131.7 -3.1 6.1 -5.6 11.6 -5.6 12.2 0 0.7 -2.7 9.6 -5.9 19.9 -8.2 25.7 -9.8 32 -12 45.3 -3.5 20.5 -4.5 34 -4.5 60 0 35.9 2.6 58.9 9.9 85.2 13.8 50.5 38.1 85.7 91.5 132.9 25.6 22.6 61.8 59.2 73.9 74.6 10.8 13.7 17.2 28.5 28 64.5 6 19.8 8 30.9 9.2 51.6 1.1 19.9 -0.1 67.1 -2 74.6 -1.3 5.4 -5.9 8 -11.4 6.5z m7.7 -3.2 c2 -2 2.5 -3.9 3.2 -12.3 1.4 -15.7 1.1 -72.5 -0.4 -82.7 -1.9 -13.3 -7.5 -34 -15.8 -58.7 -3.8 -11.2 -13.6 -30.7 -18.8 -37.5 -15.5 -19.9 -63.5 -67.3 -99.5 -98.1 -4.6 -4 -17.9 -19.3 -26.9 -31 -24.3 -31.5 -37.3 -60.4 -45.2 -100.3 -3.9 -19.8 -5.3 -37.2 -5.4 -64.6 0 -44.6 3.3 -65.8 16.9 -108.1 3.6 -11.1 6.5 -20.6 6.5 -21 0 -0.5 2 -4.8 4.4 -9.4 2.4 -4.7 7.3 -14.3 11 -21.5 3.7 -7.1 7.3 -13.6 8 -14.5 0.7 -0.8 2.6 -3.7 4.1 -6.5 1.5 -2.7 5.7 -9.5 9.3 -15 3.6 -5.5 7.7 -11.8 9.1 -14 5.8 -9.1 25.6 -32.8 36.7 -44.1 20.4 -20.6 45 -42.5 52.5 -46.6 2.5 -1.4 8.4 -5 13 -8 17.3 -11.1 31.6 -18.3 53.4 -26.9 16.9 -6.7 20.5 -9.5 20.5 -15.5 0 -10.1 -7.7 -13.8 -19.2 -9.3 -21.2 8.3 -55.8 27.7 -76 42.5 -20 14.7 -48.4 42.3 -67.5 65.9 -16.5 20.4 -36.4 48.6 -42.8 61 -1.2 2.2 -3.5 6 -5.2 8.5 -4.4 6.5 -30.6 58.8 -34.8 69.4 -2.7 6.9 -11.3 37.9 -13.4 48.6 -4.4 22.1 -5.5 36.6 -5.5 72.5 0 30 0.2 35.8 2.2 49.8 6.9 47.8 17.4 76.6 40.5 111 18.9 28.1 25.5 35.3 67.7 73.9 20.7 18.9 33.2 31.2 52.8 52.1 18 19.2 21.7 25.9 33.2 60.8 5.5 16.5 9.4 33.3 10.9 45.9 0.5 4.7 1.2 19.3 1.6 32.5 0.7 28.2 1.6 37.1 4.5 44.8 3.1 8.4 9.6 11.2 14.4 6.4z"/>
  <path d="M391.3 993.3 c-6.9 -2 -12.2 -6.7 -12.9 -11.4 -0.5 -2.9 -0.1 -4.1 2.2 -6.8 l2.8 -3.4 10.9 0.7 c15.7 0.9 20.6 4.2 19.4 12.9 -0.9 6.3 -5.1 9.7 -12 9.6 -2.8 0 -7.6 -0.8 -10.4 -1.6z m18 -2.3 c3.1 -2.5 4.2 -6.5 2.7 -10.1 -2 -4.7 -4.8 -5.7 -17.2 -6.5 -11.3 -0.7 -11.5 -0.6 -13.1 1.7 -2.2 3 -2.2 7.1 0.1 9.8 4.8 6 22.3 9.2 27.5 5.1z"/>
  <path d="M408 949.3 c-10.9 -1.9 -18 -6.4 -18 -11.3 0 -7.4 6 -10.8 20.8 -11.7 11.2 -0.7 14.9 0.5 18.2 6 2.4 3.8 2.5 6.8 0.5 10.7 -2.7 5.2 -6.1 7 -12.9 6.9 -3.3 -0.1 -7.2 -0.4 -8.6 -0.6z m18.1 -4.2 c2.1 -2.2 2.9 -3.9 2.9 -6.6 0 -4.7 -1.2 -6.9 -5.2 -9.3 -3 -1.8 -4.1 -1.9 -12.9 -1.1 -12.1 1.1 -17.1 2.8 -18.3 6.1 -1.2 3.4 0 7.5 2.7 9.2 3.7 2.5 12.8 4.5 20.5 4.5 6.8 0.1 7.6 -0.1 10.3 -2.8z"/>
  <path d="M394.6 912.6 c-4.6 -1 -6.7 -2.1 -9.3 -4.9 -3.8 -4.2 -4.2 -7.7 -1.4 -12.4 2.1 -3.4 3.1 -3.7 16.1 -5.3 15 -1.8 17.7 -1.5 21.6 2.4 2.8 2.8 3.4 4.2 3.4 7.6 0 5.3 -2.5 9.5 -6.8 11.6 -4.5 2.1 -16.4 2.7 -23.6 1z m24.3 -3.3 c4.1 -3.1 5.4 -6.5 4.1 -11.2 -1.9 -7.3 -5.7 -8.2 -24.8 -6 -6.2 0.7 -10.4 1.7 -11.6 2.8 -6.3 5.5 -2.1 13.5 8.4 15.9 7.1 1.7 20.7 0.8 23.9 -1.5z"/>
  <path d="M386.1 870.9 c-10.6 -1 -13.6 -2.2 -15.5 -6.4 -2 -4.2 -2 -5.3 0.3 -9.1 2.6 -4.2 8.2 -6 24.9 -7.8 14.2 -1.6 16.8 -1.3 20.9 2.6 2.9 2.7 4.7 7.3 3.9 10.3 -1 4 -6.4 9.4 -9.9 9.9 -7.1 1.1 -16.7 1.3 -24.6 0.5z m22.3 -1.8 c9.5 -1.6 13.6 -10.3 8.1 -16.9 -1.4 -1.6 -3.6 -3.3 -5 -3.6 -3 -0.8 -27.6 1.9 -32.5 3.5 -4.3 1.4 -8 5.2 -8 8.4 0 4.6 3.8 7.4 11.5 8.4 9.1 1.1 19.7 1.2 25.9 0.2z"/>
  <path d="M187.1 828.1 c-3.3 -3.1 -4 -6.7 -2.1 -11.6 1.8 -4.8 20.2 -29.6 23.4 -31.6 4.4 -2.7 8.8 -2.4 11.9 0.6 3.2 3.3 3.8 6.8 2.2 12.2 -1.7 5.7 -11.2 19.8 -18.4 27.4 -5.1 5.3 -6 5.9 -9.8 5.9 -3.1 0 -4.8 -0.7 -7.2 -2.9z m14 -2.3 c9 -9 20.9 -28.1 20.9 -33.6 0 -1.3 -1.4 -3.7 -3 -5.4 -5.8 -5.7 -9.5 -3 -23.6 17.2 -7.8 11.2 -9.4 14.1 -9.4 17.2 0 8.1 8.9 10.8 15.1 4.6z"/>
  <path d="M360.5 817 c-2.7 -0.4 -8.8 -1.3 -13.5 -1.9 -10 -1.3 -13 -3.5 -13 -10 0 -10 11.2 -14.3 31.2 -12.2 11.2 1.2 21 0.1 29.2 -3.4 7.2 -3.1 14.8 0.8 16.2 8.2 2 10.7 -12.3 18.9 -34.5 19.8 -5.8 0.2 -12.8 0 -15.6 -0.5z m34 -4.5 c11.8 -4.3 14.4 -6.7 14.5 -13.2 0 -3.4 -0.5 -4.6 -3.1 -6.7 -3.5 -3 -6.3 -3.2 -11.6 -1.1 -3.6 1.4 -16.7 4.2 -18.8 4 -11.8 -1.3 -25.8 -1.5 -29.3 -0.5 -8.5 2.2 -13.5 10 -9.5 14.9 1.5 1.8 3.4 2.5 9.8 3.2 4.4 0.5 10.5 1.4 13.5 1.9 9.8 1.6 26.6 0.4 34.5 -2.5z"/>
  <path d="M410.2 764.5 c-3.7 -3.1 -4.7 -5.9 -6.2 -17 -2.9 -22.4 -11.6 -53.5 -22.6 -81.3 -7.2 -18.2 -11.8 -28.2 -26.9 -58.4 -15.7 -31.4 -16.7 -33.1 -39.6 -61.1 -3.1 -3.9 -3.9 -5.7 -3.9 -9 0 -3.6 0.6 -4.6 5.5 -9.3 7.3 -7 10.4 -7.8 24.8 -6.5 15.9 1.5 32.2 1.4 38.7 -0.4 10.9 -2.9 18 -1.2 20.6 5 1.8 4.4 1.8 5.9 -0.2 10.1 -3.4 7 -17.1 10.8 -39.1 10.8 -7.9 0 -14.3 0.3 -14.3 0.6 0 0.3 1.1 2.2 2.5 4.1 8.3 11 21.2 36.6 36.5 71.9 3.2 7.4 7.9 18.2 10.5 24 7.9 17.8 18.9 47.5 24 65.1 4.1 13.8 9.5 37.5 9.5 41.3 0 10.1 -12.3 16.4 -19.8 10.1z m11.2 0.1 c4.4 -1.8 6.6 -5.1 6.6 -9.8 0 -13.5 -19.2 -75.5 -31.8 -102.8 -1.7 -3.6 -5.1 -11.4 -7.7 -17.5 -4.7 -11.1 -6.9 -16 -11 -25 -1.3 -2.7 -4.4 -9.7 -7 -15.5 -7.9 -17.6 -20.7 -40 -26.8 -46.7 -1.1 -1.3 -1.9 -2.5 -1.6 -2.7 0.2 -0.2 4 0.1 8.4 0.6 13.5 1.6 36.1 -0.9 43.5 -4.7 6.5 -3.3 8.2 -11.6 3.4 -16 -3.2 -3 -7.6 -3.2 -18.4 -0.9 -6.2 1.3 -10.3 1.5 -23 0.8 -29.8 -1.6 -35 -1 -36.6 3.8 -0.3 1.1 -1.7 2.3 -3 2.8 -3 1.2 -4.9 5 -4 8.3 0.3 1.3 3.6 6 7.4 10.3 16.9 19.7 21.3 26.8 38.7 61.9 27.8 56.1 41.9 96.6 47.1 134.6 1.8 13.4 3.1 16.4 7.9 18.5 3.8 1.7 3.9 1.7 7.9 0z"/>
  <path d="M105.1 764.6 c-4.8 -2.7 -6.4 -9.1 -3.7 -14.5 0.8 -1.5 4.6 -4.8 8.3 -7.1 3.7 -2.4 14.7 -9.6 24.3 -16 9.6 -6.4 18.7 -12 20.1 -12.3 6.6 -1.6 12.7 4.2 11.5 10.8 -1.4 7.1 -14.1 17.6 -41.5 34.2 -10.8 6.6 -14.3 7.5 -19 4.9z m13.8 -3.8 c7.9 -4.5 31 -20 36.2 -24.4 9.2 -7.6 11.4 -14.3 6.3 -18.3 -1.5 -1.2 -3.8 -2.1 -5.3 -2.1 -1.6 0.1 -8.8 4.3 -19.5 11.6 -9.4 6.3 -19.7 13.1 -23 15.1 -9.4 5.6 -11.6 8 -11.6 12.7 0 8.7 7 11 16.9 5.4z"/>
  <path d="M7.3 668.6 c-5.9 -5 -5 -12.6 2.3 -18.3 6.3 -4.9 41.7 -25.5 57.4 -33.3 23.7 -11.9 32.7 -14.4 38.3 -10.7 5.5 3.6 5.9 12.2 0.9 17.1 -1.6 1.7 -8.3 5 -17.2 8.5 -8 3.2 -20.1 8.8 -27 12.5 -13.5 7.4 -15.9 8.8 -32.3 19.1 -13 8.2 -17.5 9.2 -22.4 5.1z m24.7 -8.8 c25.1 -15.7 40.6 -23.6 64.9 -32.9 7.7 -2.9 11.1 -6.5 11.1 -11.9 0 -3 -0.6 -4.3 -3.1 -6.4 -1.7 -1.4 -3.8 -2.6 -4.8 -2.6 -9 0 -45.2 18.2 -82.7 41.5 -13.5 8.4 -16.1 13 -10.4 18.7 4.8 4.8 8.7 3.8 25 -6.4z"/>
  <path d="M67 518.9 c-4.7 -0.5 -17.3 -1 -28 -1.2 -12.4 -0.2 -20.3 -0.8 -21.7 -1.5 -5.8 -3.2 -7 -10.3 -2.5 -15.2 2.2 -2.5 3.9 -3.3 9.2 -4.1 9.8 -1.5 59.6 -1.7 64.5 -0.2 9.5 2.9 12.9 12.3 6.8 18.5 -4.7 4.6 -10.6 5.4 -28.3 3.7z m25.6 -3.4 c3.5 -2.3 4.9 -5.8 3.8 -9.6 -2.4 -8.2 -11.3 -9.7 -49.4 -8.2 -24.6 0.9 -27.4 1.2 -29.8 3 -2.1 1.6 -2.8 3 -3 6.6 -0.5 7.4 1.1 8 23.6 8.4 10.3 0.2 23 0.7 28.2 1.2 12.7 1.2 23.5 0.7 26.6 -1.4z"/>
  <path d="M106.7 391.9 c-3.7 -1 -12 -3.9 -18.5 -6.3 -6.4 -2.4 -19.6 -7.1 -29.2 -10.5 -9.6 -3.4 -20.1 -7.2 -23.3 -8.3 -4.3 -1.6 -6.4 -3 -8.3 -5.7 -2.7 -4 -2.9 -5.6 -1.1 -9.4 1.3 -2.8 7.3 -6.7 10.3 -6.7 1.1 0 6.2 1.6 11.4 3.6 5.2 1.9 20.9 7.1 34.9 11.5 14 4.5 27.8 9.1 30.5 10.4 12 5.4 16.1 16.8 7.7 21.8 -3.6 2.1 -5.8 2.1 -14.4 -0.4z m14.7 -2 c5.4 -4.3 1.9 -12.4 -7.4 -17.1 -3 -1.5 -9.3 -3.9 -14 -5.3 -4.7 -1.4 -20 -6.4 -34 -11.1 -31 -10.5 -31.9 -10.6 -36 -6.6 -3.8 3.8 -3.9 7.3 -0.2 11.1 2.2 2.4 9.2 5.2 38.2 15.4 45.3 16 43.9 15.5 47.6 15.6 1.8 0.1 4.3 -0.8 5.8 -2z"/>
  <path d="M174 299 c-0.9 -0.4 -4.5 -1.8 -8 -3 -17.9 -6.1 -55.2 -26.8 -67.7 -37.5 -5.2 -4.4 -5.8 -8.5 -1.7 -11.1 3.7 -2.5 11.1 -0.5 22.5 6.2 16.5 9.6 40.4 21.2 51.6 25.1 12.8 4.4 16.3 7.2 16.3 13 0 5.1 -3.2 8.3 -8.1 8.3 -1.9 0 -4.1 -0.5 -4.9 -1z m10.9 -4.1 c1.2 -2.2 1.2 -3.2 0.2 -5.6 -1.3 -3.3 -3.6 -4.5 -20.1 -10.9 -12.4 -4.8 -29.4 -13 -40 -19.4 -12.8 -7.7 -18.9 -10.4 -24 -10.4 -4.3 -0.1 -4.5 0 -4.8 3 -0.3 2.8 0.4 3.6 6.5 8.2 16.3 12.1 39.4 24.7 61.8 33.7 13 5.2 18.1 5.6 20.4 1.4z"/>
  <path d="M229.9 229.1 c-5.6 -3.7 -11.4 -9.8 -22.3 -23.8 -4.8 -6.2 -12.2 -15 -16.3 -19.5 -10.6 -11.6 -13.3 -15.6 -13.3 -19.2 0 -6.4 5.6 -10.6 11.5 -8.6 4.1 1.3 28.3 27.3 48.1 51.5 8.1 9.8 9.6 16.6 4.8 20.4 -3.6 2.9 -7.2 2.6 -12.5 -0.8z m13 -2.3 c1.4 -2.5 1.4 -3 -0.6 -7 -1.2 -2.4 -6.3 -9.2 -11.3 -15.3 -8.8 -10.4 -34.2 -38.7 -38.5 -42.7 -2.8 -2.7 -6.5 -3.3 -9.4 -1.7 -2 1.2 -2.7 2.4 -2.9 5.6 -0.3 3.9 0.1 4.7 7 12.4 10.9 12.2 20.1 23.3 27.9 33.6 9.8 12.9 16.9 18.5 22.9 18 2.6 -0.1 3.8 -0.9 4.9 -2.9z"/>
  <path d="M306.3 183.8 c-4.5 -4.7 -6.2 -8.8 -14.2 -32.6 -4 -11.8 -10.6 -29.2 -14.6 -38.8 -9.1 -21.2 -9.2 -21.5 -6.9 -25.3 2 -3.5 5.8 -4.7 9.8 -3.1 2.8 1 3.3 1.9 17.4 32.5 4.6 10.1 18.1 43 23.2 56.8 3.5 9.4 1.3 13.6 -7.1 13.7 -3.8 0 -5 -0.5 -7.6 -3.2z m13.5 0 c2 -2 1.4 -5 -2.7 -15.4 -13.3 -33.6 -16.2 -40.6 -18.9 -46.4 -1.7 -3.6 -5.8 -12.5 -9.1 -19.9 -3.3 -7.3 -6.8 -14.2 -7.7 -15.2 -3.3 -3.7 -10.4 -1.3 -10.4 3.5 0 1.2 3.6 10.7 8.1 21.1 4.4 10.5 11.2 28.5 15 40 6.6 19.5 9.9 27.4 13.7 31.8 1.8 2 10.1 2.4 12 0.5z"/>
  <path d="M358.8 125.3 c-1.4 -1.6 -3.3 -4.1 -4.1 -5.8 -2.5 -5.1 -6.4 -24.5 -11.7 -59 -2.8 -18.1 -5.5 -34.8 -6 -37 -2.3 -9.9 -0.2 -16.5 5.1 -16.5 6.2 0 6.9 2 13.4 37.5 4.9 26.8 9.5 47 14.4 62.9 3.5 11.1 3.8 15.1 1.5 18.4 -2.3 3.4 -9.2 3.1 -12.6 -0.5z m11.2 -0.3 c2.5 -2.5 2.5 -3 -0.6 -13.1 -7.1 -23.1 -8.5 -28.8 -17.4 -75.9 -2.2 -11.8 -4.5 -22.7 -5.1 -24.2 -1.8 -4.5 -7.9 -4.4 -9.4 0.3 -0.4 1.1 0 5.3 0.9 9.2 0.9 4 3.2 17.8 5.1 30.7 6.3 42 10.2 61.6 13.6 68.2 3.4 6.6 9 8.7 12.9 4.8z"/>
 </g>
</svg>